<svg xmlns="http://www.w3.org/2000/svg" viewBox="0 0 32 32" class="sc-beySbM ceBjEB"><path d="M25.6834 9.00099C25.6834 9.00099 22.9084 6.90731 19.6251 6.66666L19.3334 7.2362C22.3001 7.9341 23.6584 8.93682 25.0834 10.1641C22.6334 8.96088 20.2084 7.82981 15.9917 7.82981C11.7751 7.82981 9.35008 8.96088 6.90008 10.1641C8.32508 8.93682 9.94175 7.82179 12.6501 7.2362L12.3584 6.66666C8.91675 6.97951 6.30008 9.00099 6.30008 9.00099C6.30008 9.00099 3.20008 13.3328 2.66675 21.8358C5.79175 25.3093 10.5417 25.3333 10.5417 25.3333L11.5334 24.0579C9.85008 23.4963 7.94175 22.4856 6.30008 20.6647C8.25842 22.0925 11.2251 23.5846 16.0001 23.5846C20.7751 23.5846 23.7334 22.1006 25.7001 20.6647C24.0584 22.4856 22.1501 23.4963 20.4667 24.0579L21.4584 25.3333C21.4584 25.3333 26.2084 25.3093 29.3334 21.8358C28.7834 13.3328 25.6834 9.00099 25.6834 9.00099ZM12.0417 19.5015C10.8667 19.5015 9.91675 18.4587 9.91675 17.1672C9.91675 15.8757 10.8667 14.8328 12.0417 14.8328C13.2167 14.8328 14.1667 15.8757 14.1667 17.1672C14.1667 18.4587 13.2167 19.5015 12.0417 19.5015ZM19.9251 19.5015C18.7501 19.5015 17.8001 18.4587 17.8001 17.1672C17.8001 15.8757 18.7501 14.8328 19.9251 14.8328C21.1001 14.8328 22.0501 15.8757 22.0501 17.1672C22.0501 18.4587 21.0917 19.5015 19.9251 19.5015Z"></path></svg>