<svg xmlns="http://www.w3.org/2000/svg" viewBox="0 0 32 32" class="sc-beySbM ceBjEB"><path d="M27.3333 16C27.3333 18.2772 27.3333 19.813 27.2803 20.6604C27.1744 22.7258 26.5918 24.3146 25.4268 25.4268C24.2616 26.539 22.7258 27.1744 20.6604 27.2803C19.813 27.3333 18.2243 27.3333 16 27.3333C13.7227 27.3333 12.1869 27.3333 11.3395 27.2803C9.27411 27.1744 7.68532 26.5918 6.57317 25.4268C5.46102 24.3146 4.82551 22.7258 4.71959 20.6604C4.66663 19.813 4.66663 18.2243 4.66663 16C4.66663 13.7756 4.66663 12.1869 4.71959 11.3395C4.82551 9.27411 5.40805 7.68532 6.57317 6.57317C7.68532 5.46102 9.27411 4.82551 11.3395 4.71959C12.1869 4.66663 13.7756 4.66663 16 4.66663C18.2772 4.66663 19.813 4.66663 20.6604 4.71959C22.7258 4.82551 24.3146 5.40805 25.4268 6.57317C26.539 7.73827 27.1744 9.27411 27.2803 11.3395C27.2803 12.1869 27.3333 13.7227 27.3333 16ZM17.1121 6.67909C16.4236 6.67909 16.053 6.67909 16 6.67909C15.9469 6.67909 15.5763 6.67909 14.8878 6.67909C14.1993 6.67909 13.6697 6.67909 13.352 6.67909C12.9813 6.67909 12.5046 6.67909 11.9221 6.73205C11.3395 6.73205 10.8099 6.785 10.3863 6.89093C9.96258 6.94388 9.59187 7.0498 9.32706 7.15573C8.85043 7.36756 8.42675 7.63236 8.00307 8.00307C7.63236 8.3738 7.36756 8.79746 7.15573 9.32706C7.0498 9.59185 6.94388 9.96258 6.89093 10.3863C6.83797 10.8099 6.785 11.2866 6.73205 11.9221C6.73205 12.5046 6.67909 12.9813 6.67909 13.352C6.67909 13.7227 6.67909 14.2522 6.67909 14.8878C6.67909 15.5763 6.67909 15.9469 6.67909 16C6.67909 16.053 6.67909 16.4236 6.67909 17.1121C6.67909 17.8006 6.67909 18.3302 6.67909 18.6479C6.67909 19.0187 6.67909 19.4953 6.73205 20.0778C6.73205 20.6604 6.785 21.19 6.89093 21.6136C6.99685 22.0374 7.0498 22.4081 7.15573 22.6729C7.36756 23.1495 7.63236 23.5731 8.00307 23.9969C8.3738 24.3676 8.79746 24.6323 9.32706 24.8442C9.59187 24.9501 9.96258 25.0561 10.3863 25.1089C10.8099 25.162 11.2866 25.215 11.9221 25.2679C12.5576 25.3209 12.9813 25.3209 13.352 25.3209C13.7227 25.3209 14.2522 25.3209 14.8878 25.3209C15.5763 25.3209 15.9469 25.3209 16 25.3209C16.053 25.3209 16.4236 25.3209 17.1121 25.3209C17.8006 25.3209 18.3302 25.3209 18.6479 25.3209C19.0187 25.3209 19.4953 25.3209 20.0778 25.2679C20.6604 25.2679 21.19 25.215 21.6136 25.1089C22.0374 25.0561 22.4081 24.9501 22.6729 24.8442C23.1495 24.6323 23.5731 24.3676 23.9969 23.9969C24.3676 23.6262 24.6323 23.2024 24.8442 22.6729C24.9501 22.4081 25.0561 22.0374 25.1089 21.6136C25.162 21.19 25.215 20.7134 25.2679 20.0778C25.2679 19.4953 25.3209 19.0187 25.3209 18.6479C25.3209 18.2772 25.3209 17.7477 25.3209 17.1121C25.3209 16.4236 25.3209 16.053 25.3209 16C25.3209 15.9469 25.3209 15.5763 25.3209 14.8878C25.3209 14.1993 25.3209 13.6697 25.3209 13.352C25.3209 12.9813 25.3209 12.5046 25.2679 11.9221C25.2679 11.3395 25.215 10.8099 25.1089 10.3863C25.0561 9.96258 24.9501 9.59185 24.8442 9.32706C24.6323 8.85043 24.3676 8.42675 23.9969 8.00307C23.6262 7.63236 23.2024 7.36756 22.6729 7.15573C22.4081 7.0498 22.0374 6.94388 21.6136 6.89093C21.19 6.83797 20.7134 6.785 20.0778 6.73205C19.4953 6.73205 19.0187 6.67909 18.6479 6.67909C18.3302 6.67909 17.8006 6.67909 17.1121 6.67909ZM20.0778 11.8691C21.19 12.9813 21.7725 14.3583 21.7725 16C21.7725 17.6417 21.19 18.9656 20.0778 20.1308C18.9656 21.243 17.5888 21.8255 15.9469 21.8255C14.3052 21.8255 12.9813 21.243 11.8162 20.1308C10.704 19.0187 10.1215 17.6417 10.1215 16C10.1215 14.3583 10.704 13.0342 11.8162 11.8691C12.9283 10.757 14.3052 10.1744 15.9469 10.1744C17.5888 10.1744 18.9656 10.704 20.0778 11.8691ZM18.6479 18.6479C19.3894 17.9065 19.7601 17.0062 19.7601 16C19.7601 14.9937 19.3894 14.0404 18.6479 13.299C17.9065 12.5576 17.0062 12.1869 15.9469 12.1869C14.8878 12.1869 13.9875 12.5576 13.2461 13.299C12.5046 14.0404 12.1339 14.9408 12.1339 16C12.1339 17.0591 12.5046 17.9595 13.2461 18.6479C13.9875 19.3894 14.8878 19.7601 15.9469 19.7601C17.0062 19.7601 17.9065 19.3894 18.6479 18.6479ZM22.9906 8.95634C23.2554 9.22114 23.4144 9.5389 23.4144 9.90962C23.4144 10.2803 23.2554 10.5981 22.9906 10.8629C22.7258 11.1277 22.4081 11.2866 22.0374 11.2866C21.6666 11.2866 21.3489 11.1277 21.0841 10.8629C20.8193 10.5981 20.6604 10.2803 20.6604 9.90962C20.6604 9.5389 20.8193 9.22114 21.0841 8.95634C21.3489 8.69155 21.6666 8.53267 22.0374 8.53267C22.4081 8.53267 22.7258 8.69155 22.9906 8.95634Z"></path></svg>