<svg xmlns="http://www.w3.org/2000/svg" viewBox="0 0 32 32" class="sc-beySbM ceBjEB"><path d="M26.2171 4H5.76914C4.79543 4 4 4.78171 4 5.74171V26.272C4 27.232 4.79543 28 5.76914 28H26.2171C27.2046 28 28 27.232 28 26.272V5.74171C28 4.78171 27.2046 4 26.2171 4ZM11.1177 24.4617H7.552V13.0103H11.1177V24.4617ZM9.33486 11.4331C8.19657 11.4331 7.27771 10.5143 7.27771 9.376C7.27771 8.23771 8.19657 7.30514 9.33486 7.30514C10.4731 7.30514 11.4057 8.23771 11.4057 9.376C11.4057 10.5143 10.4731 11.4331 9.33486 11.4331ZM24.448 24.4617H20.896V18.8937C20.896 17.5634 20.8686 15.8491 19.0446 15.8491C17.1931 15.8491 16.9051 17.3029 16.9051 18.7977V24.4617H13.3531V13.0103H16.768V14.5737H16.8091C17.2891 13.6686 18.4549 12.7223 20.1829 12.7223C23.7897 12.7223 24.448 15.0949 24.448 18.1806V24.4617Z"></path></svg>