<svg xmlns="http://www.w3.org/2000/svg" viewBox="0 0 32 32" class="sc-beySbM ceBjEB"><path d="M24.9626 12.7344C24.492 12.7344 24.0642 12.8628 23.6791 13.0339C23.3369 13.205 22.9091 13.205 22.5241 12.9911C21.2406 12.3066 19.7433 11.836 18.1604 11.5793C17.4332 11.4938 16.9626 10.7665 17.1337 10.0392L17.7754 7.34404C17.8182 7.2157 17.9037 7.13013 18.0321 7.17292L20.4706 7.72907C20.8984 7.81463 21.2406 8.15687 21.369 8.58468C21.7112 9.48308 22.6096 10.1248 23.6364 10.1248C24.9626 10.1248 26.0321 9.05527 26.0321 7.72907C26.0321 6.40286 24.9626 5.33334 23.6364 5.33334C22.9519 5.33334 22.3529 5.59003 21.9251 6.06062C21.5829 6.40286 21.1123 6.5312 20.6845 6.44564L17.5187 5.71837C17.1765 5.63281 16.8342 5.84671 16.7487 6.14618L15.8503 9.82532C15.6364 10.7237 14.8663 11.4082 13.9679 11.4938C12.2139 11.7077 10.5882 12.1783 9.21925 12.9055C8.87701 13.0767 8.4492 13.1194 8.10695 12.9483C7.72192 12.7772 7.29412 12.6488 6.86631 12.6488C5.28342 12.6488 4 13.9323 4 15.5152C4 16.2852 4.29947 17.0125 4.81283 17.5259C5.06952 17.7825 5.19786 18.082 5.19786 18.4242C5.19786 18.467 5.19786 18.5098 5.19786 18.5526C5.19786 20.5205 6.35294 22.3601 8.4492 23.6863C10.4599 24.9697 13.1123 25.697 15.9358 25.697C18.7594 25.697 21.4118 24.9697 23.4225 23.6863C25.5187 22.3173 26.6738 20.5205 26.6738 18.5526V18.5098C26.6738 18.1676 26.8021 17.8253 27.1016 17.5686C27.6578 17.0553 28 16.328 28 15.5152C27.8289 14.0178 26.5455 12.7344 24.9626 12.7344ZM10.7166 17.2264C10.7166 16.2852 11.5294 15.5152 12.4706 15.5152C13.4118 15.5152 14.1818 16.2852 14.1818 17.2264C14.1818 18.1676 13.4118 18.9376 12.4706 18.9376C11.4866 18.9376 10.7166 18.1676 10.7166 17.2264ZM19.7861 22.0606C18.9733 22.8734 17.6471 23.3013 15.8503 23.3013C14.0535 23.3013 12.8128 22.9162 11.9572 22.1034C11.7433 21.8895 11.6578 21.5472 11.8289 21.2478C12.0428 20.8628 12.5561 20.82 12.8556 21.1194C13.4118 21.6756 14.3957 21.9751 15.8503 21.9751C17.3048 21.9751 18.2888 21.7184 18.8449 21.1194C19.1016 20.8628 19.5294 20.8628 19.7861 21.1194C20.0428 21.4189 20.0428 21.8039 19.7861 22.0606ZM19.2727 18.9376C18.3316 18.9376 17.5187 18.1676 17.5187 17.2264C17.5187 16.2852 18.3316 15.5152 19.2727 15.5152C20.2139 15.5152 20.984 16.2852 20.984 17.2264C20.984 18.1676 20.2139 18.9376 19.2727 18.9376Z"></path></svg>