<svg xmlns="http://www.w3.org/2000/svg" viewBox="0 0 32 32" class="sc-beySbM ceBjEB"><path d="M27.9999 13.842C25.9684 13.847 23.9867 13.2032 22.3348 12.0017V20.3813C22.3342 21.9333 21.8674 23.4482 20.9966 24.7233C20.1259 25.9984 18.8928 26.973 17.4622 27.5168C16.0316 28.0606 14.4717 28.1477 12.9911 27.7664C11.5105 27.3851 10.1798 26.5536 9.17685 25.383C8.1739 24.2125 7.54655 22.7587 7.37869 21.2161C7.21083 19.6735 7.51046 18.1156 8.23751 16.7507C8.96456 15.3858 10.0844 14.279 11.4472 13.5782C12.8101 12.8775 14.351 12.6162 15.864 12.8293V17.0439C15.1716 16.8227 14.4282 16.8293 13.7398 17.063C13.0514 17.2966 12.4533 17.7453 12.0309 18.345C11.6084 18.9446 11.3833 19.6646 11.3876 20.402C11.3918 21.1395 11.6253 21.8567 12.0547 22.4512C12.484 23.0458 13.0873 23.4873 13.7784 23.7127C14.4694 23.9381 15.2129 23.9359 15.9026 23.7063C16.5923 23.4768 17.193 23.0316 17.6189 22.4345C18.0448 21.8374 18.2741 21.1188 18.2741 20.3813V4H22.3348C22.332 4.34844 22.3607 4.6964 22.4206 5.03948C22.5617 5.80537 22.8551 6.53396 23.2828 7.18068C23.7106 7.8274 24.2636 8.37867 24.9082 8.80075C25.8253 9.41688 26.9005 9.74528 27.9999 9.74505V13.842Z"></path></svg>