<svg xmlns="http://www.w3.org/2000/svg" viewBox="0 0 32 32" class="sc-beySbM ceBjEB"><path d="M11.5447 26C20.5984 26 25.5545 18.3118 25.5545 11.6496C25.5545 11.4364 25.5545 11.2232 25.5415 10.9967C26.5041 10.2905 27.3366 9.39773 28 8.38508C27.1154 8.78481 26.1659 9.0513 25.1642 9.18454C26.1789 8.55829 26.9593 7.57229 27.3366 6.38641C26.387 6.97268 25.3333 7.38574 24.2016 7.61226C23.3041 6.61292 22.0293 6 20.6114 6C17.8927 6 15.6813 8.26516 15.6813 11.05C15.6813 11.4497 15.7333 11.8228 15.8114 12.1959C11.7268 11.996 8.09756 9.97069 5.66504 6.91939C5.23577 7.67888 5.00163 8.54497 5.00163 9.46436C5.00163 11.2099 5.87317 12.7555 7.18699 13.6616C6.38049 13.6349 5.62602 13.4084 4.9626 13.0353C4.9626 13.0486 4.9626 13.0753 4.9626 13.1019C4.9626 15.5403 6.66667 17.5923 8.90406 18.0453C8.4878 18.1652 8.05854 18.2185 7.60325 18.2185C7.29106 18.2185 6.97886 18.1919 6.67967 18.1252C7.30406 20.1372 9.1252 21.5896 11.2846 21.6296C9.5935 22.9887 7.47317 23.7881 5.17073 23.7881C4.78049 23.7881 4.37724 23.7748 4 23.7215C6.17236 25.1606 8.76098 26 11.5447 26Z"></path></svg>