<svg xmlns="http://www.w3.org/2000/svg" viewBox="0 0 32 32" class="sc-beySbM ceBjEB"><path d="M28.7948 10.0341C28.4891 8.97262 27.5867 8.12611 26.4367 7.84394C24.3552 7.33334 16.0146 7.33334 16.0146 7.33334C16.0146 7.33334 7.65946 7.33334 5.57795 7.84394C4.42803 8.13955 3.54011 8.97262 3.21988 10.0341C2.66675 11.969 2.66675 16 2.66675 16C2.66675 16 2.66675 20.031 3.21988 21.9659C3.52555 23.0408 4.42803 23.8739 5.57795 24.1561C7.65946 24.6667 16.0001 24.6667 16.0001 24.6667C16.0001 24.6667 24.3407 24.6667 26.4222 24.1561C27.5575 23.8739 28.4746 23.0408 28.7803 21.9659C29.3334 20.031 29.3334 16 29.3334 16C29.3334 16 29.3479 11.969 28.7948 10.0341ZM13.2781 19.6682V12.3452L20.2504 16L13.2781 19.6682Z"></path></svg>